<?xml version="1.0" encoding="utf-8"?>
<!-- Generator: Adobe Illustrator 27.0.1, SVG Export Plug-In . SVG Version: 6.00 Build 0)  -->
<svg version="1.1" id="Capa_1" xmlns="http://www.w3.org/2000/svg" xmlns:xlink="http://www.w3.org/1999/xlink" x="0px" y="0px"
	 viewBox="0 0 500 124" style="enable-background:new 0 0 500 124;" xml:space="preserve">
<style type="text/css">
	.st0{fill:#FFFFFF;}
	.st1{fill:#051B38;}
	.st2{fill:#FF9900;}
</style>
<g>
	<g>
		<path class="st0" d="M64.7,67.9l0.8-0.8c1.3,1.3,2.6,2.5,3.8,3.6c1.5,1.5,3,2.7,4.5,3.7c1.6,1.1,3.2,1.8,4.7,2.1
			c0.6,0.1,1.2,0.2,1.9,0.2c0,0,0,0,0,0c0.4,0,0.8,0,1.3-0.1c1.2-0.1,2.3-0.5,3.4-1.3c1.5-0.9,2.7-2.2,3.5-3.8
			c1.2-2.4,1.5-4.7,0.9-7.1c-0.5-1.6-1.1-2.9-2-4c0.8-1.4,1.3-2.9,1.5-4.6c0.1-2-0.3-3.9-1.1-5.5c-0.6-1.3-1.5-2.4-2.7-3.3
			c-1.4-1-2.8-1.6-4.6-1.9c-0.4-0.1-0.9-0.1-1.3-0.1c-1.4,0-2.8,0.3-4,0.9c-0.5,0.3-0.9,0.5-1.4,0.9c0.4-0.8,0.7-1.6,0.9-2.5
			c0.2-1.1,0.2-2.3,0-3.4c-0.3-1.7-1.2-2.9-1.7-3.7c-0.7-1-1.7-1.9-3.1-2.7c-1.5-0.9-3.2-1.3-4.9-1.3c-0.2,0-0.4,0-0.6,0
			c-1.4,0.1-2.8,0.5-4.3,1.3c-0.6,0.4-1.1,0.7-1.6,1.1c-0.1,0-0.1-0.1-0.2-0.1C57,35,55.6,34.4,54,34.2c-0.4,0-0.7-0.1-1.1-0.1
			c-1.8,0-3.4,0.5-5,1.5c-1.3,0.8-2.3,1.9-3.2,3.2C44,40,43.6,41,43.4,42c-0.4,1.7-0.3,3.2,0.1,4.8c0.2,0.7,0.5,1.3,0.9,1.9
			c-0.4-0.2-0.8-0.3-1.2-0.4c-0.8-0.3-1.6-0.4-2.4-0.4c-0.7,0-1.4,0.1-2.1,0.3c-1.7,0.4-3.1,1.3-4.4,2.7c-1.5,1.5-2.3,3.2-2.7,5.4
			c-0.3,1.9-0.1,3.9,0.8,5.9c0.4,0.7,0.8,1.3,1.2,1.9c-0.2,0.3-0.3,0.6-0.5,0.9c-0.8,1.5-1.1,3-1.2,4.5c-0.1,1.6,0.2,3.1,1,4.6
			c0.7,1.5,1.7,2.6,2.9,3.5l0.1,0.1c1.7,1,3.1,1.6,4.7,1.8l0.1,0h0.1c0.2,0,0.3,0,0.5,0c0.2,0,0.5,0,0.8,0c0.3,0,0.6,0,0.9-0.1
			c1.5-0.2,3.1-0.9,4.4-1.8c1.5-1,2.7-2.3,3.5-3.3c1.2-1.4,2.4-2.9,3.6-4.5c-0.4,1.1-0.7,2.1-0.8,3.2c-0.2,1.4-0.4,3.1,0.1,5
			c0.5,2,1.6,3.8,2.9,5.2c1,1.2,2.1,2,3.3,2.7c-0.3,0.7-0.5,1.4-0.7,2.2c-0.5,1.9-0.4,3.8,0.3,5.7c0.3,0.8,0.8,1.7,1.5,2.6l0.1,0.1
			l0.1,0.1c0,0,0.1,0.1,0.1,0.1c0.1,0.2,0.2,0.3,0.4,0.5l1.1,1.1l1.3-1.3l0.1-0.2c0.2-0.4,0.4-0.7,0.7-1.1c0.4-0.5,0.7-1.1,1-1.7
			c1-1.7,1.6-3.7,1.6-5.6c0-1.4-0.3-2.7-1-4c0.1-0.1,0.1-0.2,0.2-0.3c0.6-0.9,1.2-2,1.6-3.2c0.1-0.3,0.2-0.6,0.3-0.9l0.8-0.3
			l-0.7-1.2v0l0.1-1.7l-1,0.3L67,77.2l-0.8,0.1l-0.3,0.5c0,0,0,0,0,0c-0.3,0.1-0.5,0.2-0.7,0.3l-0.1,0l-0.1,0
			c-0.2,0.1-0.4,0.1-0.6,0.1c-0.4,0-0.9-0.1-1.4-0.4c-0.7-0.5-1.1-1.4-1.2-2c-0.4-2.1,0-4,1.3-6C63.6,69.1,64.2,68.4,64.7,67.9z"/>
		<path class="st0" d="M47.5,33.7c4.8-4.8,9.6-9.6,14.4-14.4c0.1-0.1,0.1-0.1,0.2-0.2c0.1,0,0.1,0.1,0.2,0.2l13.4,13.4
			c2.1,2.2,4.4,4.6,6.9,7.1l1.1,1.1l1.1-1.1c0.8-0.8,1.5-1.6,2.2-2.4c1.3-1.4,2.6-2.8,3.9-4.1c0.5-0.5,1.1-1.2,1.1-2.2
			c0-1.1-0.6-1.9-1.1-2.4L64.3,2.2c-0.2-0.2-0.5-0.4-0.8-0.7c-0.2-0.2-0.4-0.3-0.7-0.6l-1-0.9l-1,1c-4.8,4.8-9.5,9.6-14.3,14.4
			c-4.1,4.1-8.2,8.2-12.3,12.4c0-0.4,0-0.8,0-1.2c0-1.7,0-3.4,0-5.1c0-2-1.1-3.1-3.1-3.1c0,0,0,0,0,0c-1.2,0-2.4,0.1-3.6,0.1
			s-2.4,0-3.6-0.1c-2.2,0-3.3,1.1-3.3,3.3v18.7l0,0.1c0.1,0.8-0.1,1.3-0.8,1.9L16.1,46c-4.8,4.9-9.9,9.9-14.9,14.7l-0.1,0.1
			c-1.6,1.7-1.5,3.2,0.2,4.8c1.7,1.5,3.3,3.2,4.8,4.8c0.5,0.6,1.2,1.3,2.3,1.3c0,0,0,0,0,0c1,0,1.8-0.6,2.3-1.1l22.5-22.5
			C38,43.3,42.8,38.5,47.5,33.7z"/>
		<path class="st0" d="M114.4,55c-0.4-0.4-1.1-1-2.1-1c-1.1,0-1.8,0.8-2.2,1.1L87.4,77.8c-4.7,4.8-9.5,9.5-14.2,14.3
			c-4.7,4.7-9.5,9.5-14.2,14.2c-0.1,0.1-0.2,0.2-0.2,0.2c-0.1,0-0.1-0.1-0.2-0.2c-1.5-1.5-3-3.1-4.6-4.6c-0.8-0.8-1.5-1.5-2.4-2.3
			c-4-4-8.1-8.1-12.2-12.1c-0.6-0.6-1.7-1-2.4-1c-0.6,0-1.1,0.3-1.2,0.5c-1.3,1.2-2.6,2.5-3.9,3.8c-0.9,0.9-1.9,1.9-2.8,2.8l-1,0.9
			l0.9,1.2c0.4,0.4,0.8,0.9,1.3,1.2L51,117.3c0.9,0.9,1.9,1.9,2.9,2.8c1,0.9,1.9,1.9,2.8,2.8c0.6,0.7,1.3,1,2,1c0.7,0,1.4-0.3,2.1-1
			c1.2-1.2,2.4-2.4,3.6-3.6c0.6-0.6,1.3-1.2,1.9-1.9l14.9-14.9c1.9-1.9,3.9-3.9,5.8-5.8c1.9-1.9,3.9-3.8,5.8-5.7
			c3-2.9,6-5.9,8.9-8.8c1.5-1.5,2.9-2.9,4.4-4.4l13.3-13.4c0.7-0.6,1.1-1.4,1.1-2.1c0-0.8-0.4-1.5-1.1-2.1
			C117.8,58.5,116.1,56.8,114.4,55z"/>
		<path class="st0" d="M490.1,18.8c-5.5,0-9.9,4.5-9.9,9.9s4.5,9.9,9.9,9.9c5.5,0,9.9-4.5,9.9-9.9S495.5,18.8,490.1,18.8z
			 M489.8,26.6c0.1,0,0.1,0,0.2,0c0,0,0,0,0,0c0,0,0,0,0,0.2c0,0.1-0.1,0.1-0.2,0.2V26.6z M485.5,25v7.6c-0.9-1-1.4-2.4-1.4-3.8
			S484.6,26,485.5,25z M489.7,34.7v-3c0.3,1,0.5,1.7,0.6,2l0.3,1c-0.2,0-0.3,0-0.5,0C489.9,34.7,489.8,34.7,489.7,34.7z M494.3,32.9
			l-0.2-0.3c-0.1-0.3-0.4-1.5-0.6-2.1c-0.1-0.5-0.3-0.9-0.4-1.3c0.6-0.7,0.9-1.5,0.9-2.5c0-1.5-0.7-2.4-1.2-2.8c-0.9-0.8-2-1-3-1
			c0.1,0,0.2,0,0.3,0c3.2,0,6,2.7,6,6C496,30.3,495.4,31.8,494.3,32.9z"/>
		<polygon class="st0" points="183.8,51.2 151.8,51.2 151.8,20.5 135.2,20.5 135.2,94.4 151.8,94.4 151.8,66.2 183.8,66.2 
			183.8,94.4 200.3,94.4 200.3,20.5 183.8,20.5 		"/>
		<polygon class="st0" points="212.7,94.4 267.9,94.4 267.9,79.2 229.2,79.2 229.2,65.5 263.5,65.5 263.5,50.2 229.2,50.2 
			229.2,35.5 267.9,35.5 267.9,20.5 212.7,20.5 		"/>
		<path class="st0" d="M334.6,82.4c1.3-2.9,1.9-6.4,1.9-10.4c0-2.5-0.5-4.8-1.4-6.8c-1-2.1-2.2-3.9-3.6-5.4c-1.4-1.5-3.1-2.8-5-3.8
			c-0.2-0.1-0.4-0.2-0.6-0.3c0.1,0,0.1-0.1,0.2-0.1c1.7-1.1,3-2.4,4.1-3.9c1.1-1.5,1.9-3.1,2.6-4.8c0.6-1.7,1-3.5,1-5.1
			c0-4.5-0.6-7.9-1.9-10.4c-1.2-2.8-2.8-5-5-6.7c-2-1.5-4.4-2.6-7.2-3.2c-2.7-0.5-5.5-0.8-8.3-0.8h-32.7v73.8h34.2
			c3,0,6-0.4,8.9-1.1c3.1-0.8,5.6-2,7.6-3.8C331.5,87.7,333.3,85.3,334.6,82.4z M295.4,35.4h16.1c0.8,0,1.4,0.2,2.1,0.5
			c0.7,0.4,1.2,0.8,2,1.5c0.5,0.5,0.9,1.1,1.3,2c0.3,0.7,0.5,1.5,0.5,2.4c0,1.1-0.1,1.9-0.4,2.7c-0.4,1.1-0.8,1.8-1.3,2.4l-0.1,0.1
			l-0.1,0.1c-0.4,0.6-1.1,1.2-1.9,1.6c-1,0.5-1.9,0.7-3,0.7h-15.2V35.4z M319.5,74.2c-0.5,1.2-1.1,2.1-1.6,2.7
			c-0.6,0.7-1.4,1.3-2.3,1.9c-0.8,0.4-1.7,0.6-2.6,0.6h-1.5v0.1h-16.2v-15h16.2c2.8,0,4.8,0.7,6.4,2c1.5,1.3,2.2,2.9,2.2,4.8
			C320.1,72.4,319.9,73.3,319.5,74.2z"/>
		<polygon class="st0" points="401.3,79.2 362.7,79.2 362.7,65.5 397,65.5 397,50.2 362.7,50.2 362.7,35.5 401.3,35.5 401.3,20.5 
			346.1,20.5 346.1,94.4 401.3,94.4 		"/>
		<polygon class="st0" points="477.3,94.4 477.3,20.5 460.8,20.5 460.8,51.2 428.8,51.2 428.8,20.5 412.3,20.5 412.3,94.4 
			428.8,94.4 428.8,66.2 460.8,66.2 460.8,94.4 		"/>
		<polygon class="st0" points="135.5,119.1 140.1,119.1 140.1,113.1 147.4,113.1 147.4,108.7 140.1,108.7 140.1,107.2 148.2,107.2 
			148.2,102.8 135.5,102.8 		"/>
		<rect x="172.6" y="102.8" class="st0" width="4.5" height="16.3"/>
		<polygon class="st0" points="212.4,110.8 206.2,102.8 202.5,102.8 202.5,119.1 207,119.1 207,111.2 213.1,119.1 216.8,119.1 
			216.8,102.8 212.4,102.8 		"/>
		<path class="st0" d="M248,102.7l-7.3,16.3h4.9l1.4-3h5.7l1.4,3h4.8l-7.3-16.3H248z M249,111.7l0.9-1.9l0.9,1.9H249z"/>
		<polygon class="st0" points="292.5,110.8 286.3,102.8 282.6,102.8 282.6,119.1 287.1,119.1 287.1,111.2 293.2,119.1 296.9,119.1 
			296.9,102.8 292.5,102.8 		"/>
		<path class="st0" d="M330.4,107c0.9,0,1.9,0.5,2.7,1.3l1.1,1.1l3.2-3.2l-1.1-1.1c-1.7-1.5-3.8-2.4-5.9-2.4c-4.7,0-8.4,3.7-8.4,8.3
			c0,4.5,3.9,8.3,8.4,8.3c2.1,0,4.2-0.8,5.9-2.4l1.1-1.1l-3.3-3.3l-1.1,1.2c-0.7,0.7-1.7,1.2-2.7,1.2c-2.1,0-3.9-1.9-3.9-4
			S328.4,107,330.4,107z"/>
		<rect x="360.9" y="102.8" class="st0" width="4.5" height="16.3"/>
		<path class="st0" d="M396.2,102.7l-7.3,16.3h4.9l1.4-3h5.6l1.3,3h5l-7.3-16.3H396.2z M397.1,111.7l0.9-1.9l0.9,1.9H397.1z"/>
		<polygon class="st0" points="434.7,102.7 430.2,102.7 430.2,119 442.2,119 442.2,114.5 434.7,114.5 		"/>
		<path class="st0" d="M472.3,107c1,0,2,0.4,2.8,1.3l1.2,1.2l3-3.6l-1.1-1c-1.8-1.5-3.6-2.2-5.7-2.2c-3.5,0-6.1,2.3-6.1,5.3
			c0,4,4,4.9,5.7,5.2c1.6,0.3,2.5,0.7,2.5,1c0,0.4-0.6,0.8-1.7,0.8c-1.3,0-2.5-0.5-3.4-1.5l-1.2-1.2l-2.9,3.5l1,1
			c1.8,1.7,3.9,2.5,6.5,2.5c4.3,0,6.3-2.6,6.3-5.3c0-4-3.9-4.9-5.7-5.3c-2-0.4-2.4-0.7-2.5-0.9C470.9,107.5,471.3,107,472.3,107z"/>
	</g>
	<g>
		<g>
			<path class="st1" d="M40.4,62.7c-0.9,0.5-1.7,1.1-2.4,1.7c-1.7,1.6-2.7,3.5-2.4,5.9c0.2,1.6,1,2.8,2.1,3.8
				c0.9,0.8,1.9,1.3,3.1,1.5c1.3,0.3,2.6,0,3.7-0.6c1.2-0.6,2.1-1.4,3.1-2.3c1.1-1,1.9-2.2,2.8-3.3c1.3-1.6,2.7-3.2,4-4.7
				c0.4-0.5,0.9-0.9,1.4-1.4c0,0,0.2-0.1,0.2,0c0.5,0.4,1,0.8,1.6,1.2c-0.1,0.1-0.2,0.1-0.3,0.2c-1.2,1-2.2,2.1-3.1,3.3
				c-1.4,1.9-2.9,3.7-4.4,5.5c-0.9,1.1-2,2.2-3.2,3c-1.1,0.8-2.4,1.4-3.8,1.6c-0.7,0.1-1.4,0-2,0c-1.5-0.2-2.8-0.8-4.1-1.6
				c-1.1-0.8-1.9-1.8-2.5-3s-0.9-2.5-0.8-3.9c0-1.4,0.4-2.7,1-3.9c0.6-1.3,1.5-2.4,2.6-3.3c0.3-0.3,0.6-0.5,1-0.8c0,0,0.2-0.1,0.2,0
				C39,61.8,39.7,62.2,40.4,62.7"/>
			<path class="st1" d="M60,42.4c-0.1-0.1-0.1-0.2-0.2-0.3c-0.6-1-1.3-1.9-2.2-2.7s-2-1.4-3.2-1.7c-1.7-0.4-3.2-0.1-4.6,0.9
				c-1.5,1.1-2.5,2.5-2.8,4.4c-0.3,1.4,0.1,2.6,0.7,3.9c0.7,1.2,1.6,2.2,2.6,3.1c0.9,0.8,1.9,1.6,2.9,2.4c1.7,1.4,3.4,2.8,5.1,4.2
				c0.5,0.4,0.9,0.9,1.3,1.4c-0.4,0.6-0.8,1.1-1.2,1.6c-0.2-0.3-0.5-0.6-0.7-0.8c-1.1-1.2-2.5-2.2-3.8-3.2c-1.7-1.3-3.3-2.6-5-3.9
				c-0.7-0.6-1.3-1.2-1.9-1.8c-0.9-1-1.7-2.2-2.1-3.5c-0.4-1.4-0.4-2.7-0.1-4.1c0.2-0.9,0.6-1.8,1.1-2.7c0.7-1.1,1.6-2,2.7-2.7
				c1.6-1,3.3-1.4,5.2-1.2c1.4,0.1,2.6,0.6,3.8,1.2c1.4,0.8,2.6,1.9,3.6,3.2c0,0,0,0.1,0,0.2C60.9,40.9,60.5,41.6,60,42.4"/>
			<path class="st1" d="M80.8,61.9c0.1-0.1,0.3-0.2,0.4-0.2c1.1-0.6,2-1.4,2.8-2.3c1.4-1.6,2-3.4,1.5-5.6c-0.2-1.1-0.8-2-1.6-2.9
				c-0.9-0.9-1.9-1.5-3.1-1.9c-1.5-0.4-3-0.2-4.3,0.6c-1.1,0.6-2,1.3-2.8,2.2c-0.7,0.7-1.3,1.4-1.9,2.2c-1.7,2.1-3.5,4.1-5.2,6.2
				c-0.4,0.5-0.9,0.8-1.3,1.2c-0.5-0.4-1.1-0.8-1.6-1.2c0.7-0.7,1.4-1.4,2.1-2.1c0.5-0.5,0.9-1,1.3-1.6c1.5-1.9,2.9-3.7,4.4-5.5
				c1.2-1.5,2.7-2.8,4.4-3.7c1.4-0.7,2.9-0.9,4.5-0.7c1.4,0.2,2.7,0.7,3.9,1.6c1,0.7,1.8,1.6,2.3,2.7c0.8,1.5,1.1,3.1,1,4.8
				c-0.2,1.9-0.9,3.6-2.1,5.1c-0.7,0.9-1.5,1.7-2.4,2.4c-0.1,0.1-0.2,0.1-0.3,0C82.1,62.8,81.4,62.4,80.8,61.9"/>
			<path class="st1" d="M67.1,78.7c0,0.6-0.1,1.2-0.3,1.7c-0.4,1-0.9,2-1.5,2.9c-0.8,1.3-1.5,2.7-2.2,4c-0.5,0.9-0.8,1.9-0.8,2.9
				c0,0.7,0.1,1.4,0.5,2.1c0,0,0,0.1,0.1,0.1c0,0,0,0,0.1,0c0.1-0.2,0.2-0.3,0.2-0.5c0.5-1.1,0.8-2.2,0.9-3.4c0-0.4,0-0.8-0.3-1.2
				c0-0.1-0.1-0.1,0-0.2c0.3-0.7,0.7-1.4,1.2-2c0.6,1.1,0.9,2.2,0.9,3.4c0,1.7-0.5,3.4-1.4,4.9c-0.5,1-1.2,1.9-1.7,2.8
				c0,0,0,0-0.1,0.1c-0.2-0.2-0.3-0.4-0.5-0.6c-0.5-0.7-1-1.5-1.3-2.3c-0.6-1.6-0.7-3.2-0.3-4.8c0.4-1.7,1.1-3.2,2.1-4.7
				c0.4-0.7,0.9-1.4,1.3-2c0.1-0.1,0.1-0.2,0.1-0.3c-0.3,0-0.5-0.1-0.7-0.1c-1.2-0.1-2.3-0.6-3.2-1.4c-0.8-0.8-1.3-1.7-1.6-2.8
				c-0.3-1.3-0.3-2.6-0.1-3.9c0.3-2.1,1-4,2.2-5.7c0.2-0.3,0.5-0.6,0.7-0.9c-0.1-0.1-0.3-0.3-0.4-0.4c0.5-0.5,0.9-1,1.4-1.5
				c0.6,0.5,1.1,0.9,1.7,1.4c-0.2,0.2-0.3,0.3-0.5,0.5c-0.6,0.6-1.2,1.3-1.7,2c-1.4,2.2-2.1,4.5-1.6,7.2c0.3,1.2,0.9,2.3,1.9,3
				c1,0.6,2.1,0.8,3.2,0.5c0.6-0.1,1.1-0.4,1.7-0.6C67,78.7,67.1,78.7,67.1,78.7"/>
			<path class="st1" d="M59.7,62.2c-0.5-0.4-1-0.8-1.5-1.2c0.4-0.5,0.7-1.1,1.1-1.6c0.9-1,1.7-2,2.6-3c2.2-2.5,4.4-4.9,6.6-7.4
				c0.3-0.4,0.6-0.8,0.9-1.3c0.6-0.9,1.2-1.9,1.5-3c0.4-1.4,0.5-2.8-0.2-4.1c-0.4-0.8-1-1.5-1.7-2.1c-1.5-1.2-3.2-1.7-5.1-1.5
				c-1.3,0.1-2.4,0.7-3.3,1.5l-0.1,0.1c-0.5-0.5-1-1-1.6-1.5c0.6-0.5,1.2-0.9,1.9-1.3c1.2-0.6,2.4-1,3.7-1.1
				c1.7-0.1,3.3,0.3,4.7,1.1c1,0.6,1.9,1.3,2.6,2.3c0.7,0.9,1.3,1.9,1.5,3.1c0.2,0.9,0.2,1.9,0,2.8c-0.4,1.7-1.2,3.2-2.1,4.7
				c-0.9,1.4-2,2.7-3.2,4c-2,2.2-4.1,4.3-6.1,6.5c-0.8,0.9-1.5,1.8-2.1,2.8C59.8,62,59.8,62.1,59.7,62.2"/>
			<path class="st1" d="M35.2,63.8c-0.6-0.7-1.1-1.5-1.5-2.3c-0.7-1.6-1-3.3-0.7-5c0.3-1.8,1-3.3,2.3-4.6c1.1-1.1,2.3-1.9,3.8-2.3
				c1.2-0.3,2.5-0.3,3.7,0.1c2,0.6,3.8,1.7,5.4,3c1.7,1.3,3.2,2.9,4.8,4.3c1.5,1.4,2.9,2.8,4.4,4.2c0.9,0.8,1.9,1.6,2.9,2.2
				c-0.1,0.1-0.2,0.2-0.3,0.3c-0.3,0.3-0.6,0.6-0.9,0.9c-0.1,0.1-0.2,0.2-0.4,0.1c-0.9-0.5-1.7-1.1-2.4-1.8c-3-2.7-5.9-5.5-8.8-8.2
				c-0.9-0.8-2-1.5-3.2-2.1c-1-0.5-2-0.8-3-0.9c-1.5-0.1-2.8,0.4-3.9,1.5c-1.5,1.5-2.3,3.3-2.2,5.5c0.1,1.3,0.5,2.5,1.4,3.5
				c0.1,0.2,0.1,0.3,0,0.4C36.1,63,35.7,63.4,35.2,63.8C35.3,63.7,35.2,63.7,35.2,63.8"/>
			<path class="st1" d="M84.4,62.3c0.5-0.5,1-1,1.5-1.5c0.1,0.1,0.2,0.2,0.2,0.3c0.9,1.1,1.5,2.4,1.9,3.8c0.5,2.1,0.2,4.1-0.8,6.1
				c-0.7,1.3-1.7,2.4-3,3.2c-0.9,0.6-1.8,1-2.8,1.1c-0.9,0.1-1.8,0.1-2.7-0.1c-1.5-0.3-2.9-1-4.2-1.9c-1.6-1-3-2.2-4.3-3.5
				c-1.8-1.7-3.6-3.4-5.4-5.2c-1-1-2-1.9-3.2-2.7c-0.2-0.2-0.5-0.3-0.8-0.5c0.1-0.1,0.2-0.2,0.3-0.3c0.3-0.3,0.5-0.6,0.8-1
				c0.1-0.1,0.2-0.2,0.3-0.1c0.7,0.5,1.4,0.9,2.1,1.5c1,0.9,1.9,1.8,2.9,2.7c2,1.9,4.1,3.8,6.2,5.6c1.3,1.1,2.6,2,4.1,2.7
				c1.1,0.5,2.3,0.8,3.6,0.5c1.2-0.2,2.2-0.8,3-1.7c0.7-0.7,1.2-1.6,1.6-2.6c0.6-1.8,0.5-3.6-0.5-5.3C84.9,63,84.7,62.7,84.4,62.3"
				/>
			<path class="st1" d="M61.5,54.1c0.1-0.6,0.3-1.3,0.3-1.9c0.2-1.7,0.2-3.5-0.1-5.2c0-0.1,0-0.1,0-0.2c-0.2-0.4-0.1-0.8,0-1.2
				c0.4-0.8,0.8-1.5,1.2-2.3l0.1-0.1c0.6,1.5,1.1,3.1,1.1,4.8c0.2-0.2,0.3-0.4,0.5-0.5c0.4-0.5,0.8-1,1.2-1.5c0.4-0.5,0.8-1.1,1-1.8
				c0.3-1-0.2-2.1-1.1-2.6c-0.8-0.4-1.6-0.2-2.3,0.3c-0.7,0.5-1,1.2-1.4,1.9c-0.7,1.5-1.2,3.1-1.6,4.7c-0.2,0.9-0.4,1.9-0.6,2.9
				c0,0.1-0.1,0.3-0.1,0.4c0-0.1,0-0.1-0.1-0.1c-0.6-1.7-1.2-3.3-1.9-5c-0.2-0.6-0.3-1.1-0.1-1.7c0.2-0.7,0.4-1.5,0.6-2.2
				c0,0,0-0.1,0.1-0.1c0.3,0.7,0.5,1.3,0.8,2c0.2-0.4,0.3-0.7,0.5-1.1c0.5-1.1,1-2.1,1.7-3.1c0.9-1.1,1.9-1.8,3.3-1.9
				c0.9-0.1,1.8,0.2,2.6,0.7c1.3,0.9,2.1,2.2,2.2,3.8c0,0.8-0.2,1.5-0.6,2.2c-0.6,1.4-1.4,2.5-2.3,3.4
				C64.7,50.5,63.2,52.3,61.5,54.1L61.5,54.1"/>
			<path class="st1" d="M41.4,59.7c1.6-0.5,3.1-1.1,4.8-1.1c-0.1-0.1-0.1-0.1-0.2-0.2c-0.7-0.6-1.4-1.2-2.1-1.8
				c-0.6-0.5-1.4-0.9-2.2-0.8c-1.5,0-2.5,1.5-1.8,2.9c0.3,0.7,0.8,1.1,1.4,1.5c1.1,0.7,2.3,1.1,3.6,1.5c1.5,0.5,2.9,0.9,4.4,1.2
				C49.4,63,49.7,63,50,63c-0.2,0.1-0.4,0.1-0.5,0.2c-1.6,0.6-3.2,1.1-4.8,1.7c-0.4,0.2-0.9,0.2-1.3,0.1c-0.8-0.2-1.6-0.4-2.4-0.6
				c0,0,0,0-0.1-0.1c0.7-0.3,1.3-0.5,2-0.8c-0.5-0.2-1-0.4-1.4-0.6c-1.1-0.5-2.1-1-2.9-1.8c-1.3-1.2-2-3-1.4-4.7
				c0.3-0.7,0.7-1.3,1.2-1.8c0.8-0.8,1.8-1.3,3-1.3c0.8,0,1.5,0.2,2.2,0.6c1.3,0.7,2.3,1.6,3.3,2.5c1.6,1.5,3.2,3.1,4.8,4.6
				c0.1,0.1,0.3,0.3,0.5,0.4c-0.2,0-0.4-0.1-0.6-0.1c-2-0.4-4-0.5-6-0.3c-0.4,0-0.7,0.2-1.1,0.2c-0.1,0-0.3,0-0.4,0
				C43.2,60.9,42.4,60.4,41.4,59.7C41.4,59.8,41.4,59.8,41.4,59.7"/>
			<path class="st1" d="M79.8,64.8c-0.8,0.2-1.5,0.5-2.3,0.7c-0.8,0.2-1.6,0.3-2.4,0.4c0,0,0,0.1,0.1,0.1c0.7,0.6,1.5,1.3,2.2,1.9
				c0.6,0.5,1.3,0.8,2,0.8c1.4,0,2.5-1.3,1.9-2.8c-0.3-0.8-0.9-1.3-1.7-1.7c-1.4-0.8-3-1.3-4.5-1.7c-1.2-0.3-2.3-0.6-3.5-0.9
				c-0.2,0-0.4-0.1-0.6-0.1c0.4-0.1,0.8-0.3,1.2-0.4c1.4-0.5,2.8-1,4.1-1.5c0.4-0.1,0.8-0.1,1.2-0.1c0.9,0.1,1.7,0.4,2.6,0.7
				c-0.7,0.3-1.3,0.5-2,0.8c0.2,0.1,0.4,0.2,0.6,0.3c1.2,0.5,2.4,1.1,3.4,1.9c1.1,0.8,1.7,1.9,1.9,3.2c0.1,1.3-0.3,2.4-1.2,3.3
				c-0.6,0.6-1.2,1-2,1.3c-1.1,0.4-2.2,0.3-3.3-0.3c-0.7-0.4-1.4-0.9-2-1.4c-1.4-1.1-2.6-2.4-3.9-3.6c-0.9-0.9-1.8-1.7-2.7-2.6
				c0.1,0,0.2,0,0.3,0.1c2.1,0.4,4.1,0.5,6.2,0.3c0.4,0,0.7-0.2,1.1-0.2c0.1,0,0.2,0,0.3,0c0.6,0.2,1.2,0.5,1.8,0.7
				C79,64.3,79.4,64.6,79.8,64.8C79.8,64.7,79.8,64.8,79.8,64.8"/>
			<path class="st1" d="M69,60c0.9-1.1,1.7-2.2,2.6-3.4c0.9-1.3,1.9-2.5,3-3.7c0.7-0.8,1.5-1.4,2.4-1.9c0.7-0.4,1.5-0.4,2.3-0.3
				c1.3,0.2,2.4,0.7,3.3,1.7c0.8,0.9,1.2,2,1.1,3.3c-0.1,0.9-0.4,1.6-0.9,2.4c-0.7-0.3-1.4-0.5-2-0.8c0.1-0.3,0.2-0.5,0.3-0.8
				c0.3-0.9,0.1-1.8-0.6-2.4c-0.7-0.7-1.6-0.8-2.5-0.5c-0.7,0.3-1.2,0.7-1.7,1.2c-0.5,0.6-1,1.1-1.6,1.7c0,0-0.1,0.1-0.1,0.2
				c3.4-0.3,6.4,0.8,9.2,2.4c-0.2,0.3-0.4,0.6-0.7,0.8c-0.3,0.3-0.7,0.5-1,0.8c-0.1,0-0.2,0-0.3,0c-1.1-0.6-2.3-0.9-3.5-1.2
				c-1.9-0.4-3.7-0.5-5.6-0.3c-1.1,0.1-2.2,0.3-3.3,0.7C69.4,59.8,69.2,59.9,69,60"/>
			<path class="st1" d="M55.3,42.5c-0.3-0.1-0.5-0.2-0.7-0.3c-0.9-0.3-1.9,0-2.5,0.7c-0.7,0.7-0.8,1.7-0.3,2.6
				c0.3,0.6,0.7,1.1,1.2,1.6c0.6,0.5,1.1,1,1.7,1.5c0,0,0.1,0,0.1,0.1c-0.3-3.4,0.7-6.4,2.3-9.2c0.2,0.2,0.4,0.3,0.6,0.4
				c0.4,0.3,0.8,0.7,1,1.2c0,0.1,0,0.2,0,0.2c-0.5,0.9-0.8,1.8-1,2.8c-0.4,1.7-0.6,3.5-0.5,5.2c0.1,1.7,0.4,3.4,1,4.9
				c0,0,0,0.1,0.1,0.1c-0.1,0.1-0.1,0-0.1,0c-0.5-0.4-1.1-0.9-1.6-1.3c-1.3-1-2.6-2-3.9-2.9c-0.8-0.6-1.6-1.3-2.3-2.1
				c-0.7-0.7-1.3-1.5-1.5-2.5c-0.2-1.1,0-2.2,0.5-3.2c0.4-0.9,1.1-1.7,2-2.2c1.1-0.6,2.2-0.6,3.3-0.3c0.4,0.1,0.9,0.4,1.3,0.5
				c0.1,0,0.1,0.2,0.1,0.2C55.9,41.2,55.6,41.8,55.3,42.5"/>
			<path class="st1" d="M37.3,65.4c0.4-0.7,1-1.2,1.6-1.5c0.1,0,0.2-0.1,0.3,0c1,0.6,2,0.8,3.1,1.1c2.1,0.5,4.3,0.6,6.4,0.4
				c1.2-0.1,2.3-0.4,3.4-0.8h0.1c-1.1,1.5-2.3,2.9-3.4,4.4c-0.5,0.6-0.9,1.3-1.5,1.9c-0.9,1-1.8,2-3.1,2.7c-0.7,0.3-1.4,0.4-2.2,0.3
				c-1.2-0.1-2.3-0.6-3.2-1.4c-1.1-1.1-1.6-2.4-1.3-4c0.1-0.6,0.4-1.3,0.7-1.8c0-0.1,0.1-0.1,0.2-0.1c0.6,0.3,1.3,0.5,1.9,0.8
				c-0.1,0.4-0.3,0.7-0.3,1.1c-0.2,1,0.2,1.8,1,2.4c0.8,0.6,1.6,0.5,2.5,0.1c0.7-0.4,1.2-0.9,1.7-1.5c0.4-0.5,0.8-0.9,1.2-1.4
				c0,0,0-0.1,0.1-0.1C43.2,68.1,40.2,67.1,37.3,65.4"/>
			<path class="st1" d="M61.7,62.5c0.4,0.4,0.9,0.9,1.3,1.3c-0.5,0.5-1,1-1.5,1.6c-0.9,0.9-1.6,2-2.3,3.1c-1.1,1.8-1.8,3.7-2,5.8
				c-0.2,1.9,0.1,3.7,1.1,5.4c0.7,1.2,1.7,2.2,2.8,2.9c0.4,0.3,0.8,0.5,1.2,0.7c0.1,0.1,0.2,0.1,0.3,0.2c-0.4,0.6-0.8,1.2-1.2,1.8
				c-1.3-0.8-2.6-1.6-3.6-2.8c-1.2-1.3-2.1-2.9-2.6-4.7c-0.4-1.5-0.3-2.9-0.1-4.4c0.4-2.6,1.5-4.9,3-7.1c0.7-1.1,1.5-2,2.5-2.9
				C60.9,63.1,61.3,62.8,61.7,62.5"/>
			<path class="st1" d="M32.7,31.3C42.7,21.3,52.2,11.7,61.9,2c0.7,0.6,1.1,0.9,1.4,1.2c8.8,8.8,17.7,17.7,26.5,26.5
				c1,1,0.9,1.6,0,2.5c-2.1,2-4,4.2-6.2,6.5c-2.5-2.5-4.7-4.8-6.9-7.1c-4.5-4.5-8.9-8.9-13.4-13.4c-1-1-1.6-0.9-2.5,0
				c-9.5,9.6-19.2,19.2-28.7,28.8c-7.5,7.5-15,15-22.5,22.5c-1,1-1.6,0.9-2.4-0.1c-1.6-1.7-3.2-3.4-5-5c-1.1-1-1.1-1.6-0.1-2.7
				c6.3-6,12.4-12.2,18.6-18.4c0.9-0.9,1.3-1.8,1.2-3.1c0-6.3,0-12.5,0-18.7c0-1.3,0.4-1.8,1.8-1.8c2.4,0.1,4.9,0.1,7.3,0
				c1.2,0,1.6,0.4,1.6,1.6c-0.1,2.6,0,5.2,0,7.8C32.6,29.8,32.6,30.3,32.7,31.3"/>
			<path class="st1" d="M30.2,94.5c2.3-2.2,4.4-4.5,6.7-6.6c0.2-0.2,1.2,0.1,1.6,0.5c4.1,4,8.2,8.1,12.2,12.1
				c2.3,2.3,4.7,4.6,6.9,6.9c1,1,1.6,1,2.6,0c9.4-9.5,19-19,28.4-28.5c7.6-7.6,15.1-15.1,22.7-22.7c0.8-0.8,1.3-1,2.2-0.1
				c1.7,1.8,3.4,3.5,5.2,5.2c0.8,0.7,0.8,1.3,0,2c-4.5,4.5-8.9,8.9-13.4,13.4c-4.4,4.4-8.7,8.8-13.2,13.2
				c-3.9,3.9-7.8,7.7-11.6,11.5c-5,5-9.9,9.9-14.9,14.9c-1.9,1.9-3.8,3.7-5.6,5.6c-0.7,0.7-1.3,0.8-2,0c-1.9-1.9-3.9-3.8-5.8-5.7
				c-7-7-13.9-13.9-20.9-20.9C30.9,95.4,30.6,95,30.2,94.5"/>
		</g>
		<g>
			<path d="M490.1,20.3c-4.7,0-8.4,3.8-8.4,8.4s3.8,8.4,8.4,8.4c4.7,0,8.4-3.8,8.4-8.4S494.7,20.3,490.1,20.3 M490.1,36.2
				c-4.1,0-7.5-3.4-7.5-7.5s3.4-7.5,7.5-7.5c4.1,0,7.5,3.4,7.5,7.5S494.1,36.2,490.1,36.2"/>
			<path d="M487.1,24.5c0.6-0.1,1.4-0.2,2.2-0.2c1.2,0,2,0.2,2.6,0.7c0.5,0.4,0.7,1,0.7,1.7c0,1.2-0.7,2-1.7,2.3l0,0
				c0.7,0.2,1.1,0.9,1.3,1.8c0.3,1.3,0.5,2.1,0.7,2.5h-1.2c-0.1-0.3-0.3-1-0.6-2.1c-0.3-1.2-0.7-1.7-1.8-1.7h-1.1v3.9H487
				L487.1,24.5L487.1,24.5z M488.3,28.5h1.2c1.2,0,2-0.7,2-1.7c0-1.2-0.8-1.7-2.1-1.7c-0.6,0-1,0.1-1.1,0.1V28.5z"/>
			<polygon class="st1" points="198.8,22 198.8,92.9 185.3,92.9 185.3,64.7 150.3,64.7 150.3,92.9 136.7,92.9 136.7,22 150.3,22 
				150.3,52.7 185.3,52.7 185.3,22 			"/>
			<polygon class="st1" points="227.8,34 227.8,51.7 262,51.7 262,64.1 227.8,64.1 227.8,80.7 266.4,80.7 266.4,92.9 214.2,92.9 
				214.2,22 266.4,22 266.4,34 			"/>
			<path class="st1" d="M332.2,41.7c0,1.4-0.3,3-0.9,4.6c-0.6,1.6-1.4,3.1-2.4,4.5c-1,1.4-2.2,2.5-3.7,3.5c-1.4,0.9-3,1.5-4.7,1.5
				c1.8,0.1,3.5,0.6,5.2,1.5c1.7,0.9,3.3,2.1,4.6,3.5c1.4,1.5,2.5,3.2,3.4,5.1c0.9,1.9,1.3,4,1.3,6.2c0,3.9-0.6,7.2-1.8,9.8
				c-1.2,2.7-2.8,4.9-4.8,6.5c-2,1.7-4.4,2.8-7.1,3.5c-2.7,0.7-5.6,1.1-8.5,1.1h-32.7V22h31.2c2.9,0,5.6,0.3,8.1,0.8
				c2.5,0.6,4.7,1.6,6.6,3c1.9,1.5,3.4,3.5,4.5,6.1C331.7,34.4,332.2,37.7,332.2,41.7 M294,50.8h16.7c1.4,0,2.5-0.3,3.6-0.8
				c1-0.5,1.9-1.2,2.5-2.1c0.7-0.8,1.2-1.8,1.6-2.9c0.4-1.1,0.5-2.1,0.5-3.2c0-1-0.2-2.1-0.6-3c-0.4-1-0.9-1.8-1.6-2.5
				c-0.7-0.7-1.4-1.3-2.3-1.8c-0.9-0.5-1.8-0.7-2.8-0.7H294V50.8z M313,80.9c1.2,0,2.3-0.3,3.3-0.8c1-0.6,1.9-1.3,2.7-2.2
				c0.8-0.9,1.4-2,1.9-3.1c0.5-1.1,0.7-2.3,0.7-3.5c0-2.4-0.9-4.4-2.7-6c-1.8-1.6-4.2-2.4-7.4-2.4h-17.7v18L313,80.9L313,80.9z"/>
			<polygon class="st1" points="361.2,34 361.2,51.7 395.5,51.7 395.5,64.1 361.2,64.1 361.2,80.7 399.8,80.7 399.8,92.9 
				347.6,92.9 347.6,22 399.8,22 399.8,34 			"/>
			<polygon class="st1" points="475.8,22 475.8,92.9 462.3,92.9 462.3,64.7 427.3,64.7 427.3,92.9 413.8,92.9 413.8,22 427.3,22 
				427.3,52.7 462.3,52.7 462.3,22 			"/>
			<g>
				<path class="st2" d="M138.6,105.8v4.4h7.4v1.4h-7.4v6.1H137v-13.3h9.7v1.4L138.6,105.8L138.6,105.8z"/>
				<path class="st2" d="M174.1,104.3h1.5v13.3h-1.5V104.3z"/>
				<path class="st2" d="M204,104.3h1.5l8.3,10.8v-10.8h1.5v13.3h-1.5l-8.3-10.8v10.8H204V104.3z"/>
				<path class="st2" d="M253.6,114.5H246l-1.4,3H243l6-13.3h1.7l6,13.3H255L253.6,114.5z M253,113.2l-3.2-7l-3.2,7H253z"/>
				<path class="st2" d="M284.1,104.3h1.5l8.3,10.8v-10.8h1.5v13.3H294l-8.3-10.8v10.8h-1.5V104.3z"/>
				<path class="st2" d="M323.5,111c0-3.8,3.2-6.9,7-6.9c1.9,0,3.6,0.8,4.9,2l-1.1,1.1c-1-1-2.4-1.7-3.8-1.7c-2.9,0-5.4,2.5-5.4,5.5
					s2.5,5.5,5.4,5.5c1.5,0,2.9-0.7,3.8-1.7l1.1,1.1c-1.3,1.2-3,2-4.9,2C326.7,117.8,323.5,114.6,323.5,111z"/>
				<path class="st2" d="M362.4,104.3h1.5v13.3h-1.5V104.3z"/>
				<path class="st2" d="M401.8,114.5h-7.6l-1.4,3h-1.7l6-13.3h1.7l6,13.3h-1.7L401.8,114.5z M401.1,113.2l-3.2-7l-3.2,7H401.1z"/>
				<path class="st2" d="M440.7,116.1v1.4h-8.9v-13.3h1.5V116L440.7,116.1L440.7,116.1z"/>
				<path class="st2" d="M467.3,115.7l1-1.2c1.1,1.1,2.6,1.9,4.5,1.9c2.1,0,3.2-1.1,3.2-2.3c0-1.4-1.3-2-3.7-2.5
					c-2.7-0.6-4.5-1.5-4.5-3.8c0-2.1,1.9-3.8,4.6-3.8c2,0,3.5,0.8,4.8,1.9l-1,1.2c-1.1-1.1-2.5-1.7-3.9-1.7c-1.7,0-2.9,1.1-2.9,2.3
					c0,1.4,1.3,1.9,3.7,2.4c2.6,0.6,4.5,1.5,4.5,3.9c0,2.1-1.6,3.8-4.8,3.8C470.4,117.8,468.7,117,467.3,115.7z"/>
			</g>
		</g>
	</g>
</g>
</svg>
