<?xml version="1.0" encoding="utf-8"?>
<!-- Generator: Adobe Illustrator 27.0.1, SVG Export Plug-In . SVG Version: 6.00 Build 0)  -->
<svg version="1.1" id="Capa_1" xmlns="http://www.w3.org/2000/svg" xmlns:xlink="http://www.w3.org/1999/xlink" x="0px" y="0px"
	 viewBox="0 0 500 121.4" style="enable-background:new 0 0 500 121.4;" xml:space="preserve">
<style type="text/css">
	.st0{fill:#FFFFFF;}
</style>
<g>
	<g>
		<path class="st0" d="M39.1,61c-0.9,0.5-1.7,1.1-2.4,1.7c-1.7,1.6-2.7,3.5-2.4,5.9c0.2,1.6,1,2.8,2.1,3.8c0.9,0.8,1.9,1.3,3.1,1.5
			c1.3,0.3,2.6,0,3.7-0.6c1.2-0.6,2.1-1.4,3.1-2.3c1.1-1,1.9-2.2,2.8-3.3c1.3-1.6,2.7-3.2,4-4.7c0.4-0.5,0.9-0.9,1.4-1.4
			c0,0,0.2-0.1,0.2,0c0.5,0.4,1,0.8,1.6,1.2c-0.1,0.1-0.2,0.1-0.3,0.2c-1.2,1-2.2,2.1-3.1,3.3c-1.4,1.9-2.9,3.7-4.4,5.5
			c-0.9,1.1-2,2.2-3.2,3c-1.1,0.8-2.4,1.4-3.8,1.6c-0.7,0.1-1.4,0-2,0c-1.5-0.2-2.8-0.8-4.1-1.6c-1.1-0.8-1.9-1.8-2.5-3
			c-0.6-1.2-0.9-2.5-0.8-3.9c0-1.4,0.4-2.7,1-3.9c0.6-1.3,1.5-2.4,2.6-3.3c0.3-0.3,0.6-0.5,1-0.8c0,0,0.2-0.1,0.2,0
			C37.7,60.1,38.4,60.5,39.1,61"/>
		<path class="st0" d="M58.8,40.6c-0.1-0.1-0.1-0.2-0.2-0.3c-0.6-1-1.3-1.9-2.2-2.7c-0.9-0.8-2-1.4-3.2-1.7
			c-1.7-0.4-3.2-0.1-4.6,0.9c-1.5,1.1-2.5,2.5-2.8,4.4c-0.3,1.4,0.1,2.6,0.7,3.9c0.7,1.2,1.6,2.2,2.6,3.1c0.9,0.8,1.9,1.6,2.9,2.4
			c1.7,1.4,3.4,2.8,5.1,4.2c0.5,0.4,0.9,0.9,1.3,1.4c-0.4,0.6-0.8,1.1-1.2,1.6c-0.2-0.3-0.5-0.6-0.7-0.8c-1.1-1.2-2.5-2.2-3.8-3.2
			c-1.7-1.3-3.3-2.6-5-3.9c-0.7-0.6-1.3-1.2-1.9-1.8c-0.9-1-1.7-2.2-2.1-3.5c-0.4-1.4-0.4-2.7-0.1-4.1c0.2-0.9,0.6-1.8,1.1-2.7
			c0.7-1.1,1.6-2,2.7-2.7c1.6-1,3.3-1.4,5.2-1.2c1.4,0.1,2.6,0.6,3.8,1.2c1.4,0.8,2.6,1.9,3.6,3.2c0,0,0,0.1,0,0.2
			C59.7,39.1,59.3,39.8,58.8,40.6"/>
		<path class="st0" d="M79.7,60.2c0.1-0.1,0.3-0.2,0.4-0.2c1.1-0.6,2-1.4,2.8-2.3c1.4-1.6,2-3.4,1.5-5.6c-0.2-1.1-0.8-2-1.6-2.9
			c-0.9-0.9-1.9-1.5-3.1-1.9c-1.5-0.4-3-0.2-4.3,0.6c-1.1,0.6-2,1.3-2.8,2.2c-0.7,0.7-1.3,1.4-1.9,2.2c-1.7,2.1-3.5,4.1-5.2,6.2
			c-0.4,0.5-0.9,0.8-1.3,1.2c-0.5-0.4-1.1-0.8-1.6-1.2c0.7-0.7,1.4-1.4,2.1-2.1c0.5-0.5,0.9-1,1.3-1.6c1.5-1.9,2.9-3.7,4.4-5.5
			c1.2-1.5,2.7-2.8,4.4-3.7c1.4-0.7,2.9-0.9,4.5-0.7c1.4,0.2,2.7,0.7,3.9,1.6c1,0.7,1.8,1.6,2.3,2.7c0.8,1.5,1.1,3.1,1,4.8
			c-0.2,1.9-0.9,3.6-2.1,5.1c-0.7,0.9-1.5,1.7-2.4,2.4c-0.1,0.1-0.2,0.1-0.3,0C81.1,61.1,80.4,60.7,79.7,60.2"/>
		<path class="st0" d="M66,77.1c0,0.6-0.1,1.2-0.3,1.7c-0.4,1-0.9,2-1.5,2.9c-0.8,1.3-1.5,2.7-2.2,4c-0.5,0.9-0.8,1.9-0.8,2.9
			c0,0.7,0.1,1.4,0.5,2.1c0,0,0,0.1,0.1,0.1c0,0,0,0,0.1,0c0.1-0.2,0.2-0.3,0.2-0.5c0.5-1.1,0.8-2.2,0.9-3.4c0-0.4,0-0.8-0.3-1.2
			c0-0.1-0.1-0.1,0-0.2c0.3-0.7,0.7-1.4,1.2-2c0.6,1.1,0.9,2.2,0.9,3.4c0,1.7-0.5,3.4-1.4,4.9c-0.5,1-1.2,1.9-1.7,2.8
			c0,0,0,0-0.1,0.1c-0.2-0.2-0.3-0.4-0.5-0.6c-0.5-0.7-1-1.5-1.3-2.3c-0.6-1.6-0.7-3.2-0.3-4.8c0.4-1.7,1.1-3.2,2.1-4.7
			c0.4-0.7,0.9-1.4,1.3-2c0.1-0.1,0.1-0.2,0.1-0.3c-0.3,0-0.5-0.1-0.7-0.1c-1.2-0.1-2.3-0.6-3.2-1.4c-0.8-0.8-1.3-1.7-1.6-2.8
			c-0.3-1.3-0.3-2.6-0.1-3.9c0.3-2.1,1-4,2.2-5.7c0.2-0.3,0.5-0.6,0.7-0.9c-0.1-0.1-0.3-0.3-0.4-0.4c0.5-0.5,0.9-1,1.4-1.5
			c0.6,0.5,1.1,0.9,1.7,1.4c-0.2,0.2-0.3,0.3-0.5,0.5c-0.6,0.6-1.2,1.3-1.7,2c-1.4,2.2-2.1,4.5-1.6,7.2c0.3,1.2,0.9,2.3,1.9,3
			c1,0.6,2.1,0.8,3.2,0.5c0.6-0.1,1.1-0.4,1.7-0.6C65.9,77.1,66,77.1,66,77.1"/>
		<path class="st0" d="M58.5,60.5c-0.5-0.4-1-0.8-1.5-1.2c0.4-0.5,0.7-1.1,1.1-1.6c0.9-1,1.7-2,2.6-3c2.2-2.5,4.4-4.9,6.6-7.4
			c0.3-0.4,0.6-0.8,0.9-1.3c0.6-0.9,1.2-1.9,1.5-3c0.4-1.4,0.5-2.8-0.2-4.1c-0.4-0.8-1-1.5-1.7-2.1c-1.5-1.2-3.2-1.7-5.1-1.5
			c-1.3,0.1-2.4,0.7-3.3,1.5c0,0-0.1,0.1-0.1,0.1c-0.5-0.5-1-1-1.6-1.5c0.6-0.5,1.2-0.9,1.9-1.3c1.2-0.6,2.4-1,3.7-1.1
			c1.7-0.1,3.3,0.3,4.7,1.1c1,0.6,1.9,1.3,2.6,2.3c0.7,0.9,1.3,1.9,1.5,3.1c0.2,0.9,0.2,1.9,0,2.8C71.7,44,70.9,45.5,70,47
			c-0.9,1.4-2,2.7-3.2,4c-2,2.2-4.1,4.3-6.1,6.5c-0.8,0.9-1.5,1.8-2.1,2.8C58.6,60.3,58.6,60.4,58.5,60.5"/>
		<path class="st0" d="M33.9,62.1c-0.6-0.7-1.1-1.5-1.5-2.3c-0.7-1.6-1-3.3-0.7-5c0.3-1.8,1-3.3,2.3-4.6c1.1-1.1,2.3-1.9,3.8-2.3
			c1.2-0.3,2.5-0.3,3.7,0.1c2,0.6,3.8,1.7,5.4,3c1.7,1.3,3.2,2.9,4.8,4.3c1.5,1.4,2.9,2.8,4.4,4.2c0.9,0.8,1.9,1.6,2.9,2.2
			c-0.1,0.1-0.2,0.2-0.3,0.3c-0.3,0.3-0.6,0.6-0.9,0.9c-0.1,0.1-0.2,0.2-0.4,0.1c-0.9-0.5-1.7-1.1-2.4-1.8c-3-2.7-5.9-5.5-8.9-8.2
			c-0.9-0.8-2-1.5-3.2-2.1c-1-0.5-2-0.8-3-0.9c-1.5-0.1-2.8,0.4-3.9,1.5c-1.5,1.5-2.3,3.3-2.2,5.5c0.1,1.3,0.5,2.5,1.4,3.5
			c0.1,0.2,0.1,0.3,0,0.4c-0.4,0.4-0.8,0.8-1.2,1.2C34,62,33.9,62,33.9,62.1"/>
		<path class="st0" d="M83.4,60.6c0.5-0.5,1-1,1.5-1.5c0.1,0.1,0.2,0.2,0.2,0.3c0.9,1.1,1.5,2.4,1.9,3.8c0.5,2.1,0.2,4.1-0.8,6.1
			c-0.7,1.3-1.7,2.4-3,3.2c-0.9,0.6-1.8,1-2.8,1.1c-0.9,0.1-1.8,0.1-2.7-0.1c-1.5-0.3-2.9-1-4.2-1.9c-1.6-1-3-2.2-4.3-3.5
			c-1.8-1.7-3.6-3.4-5.4-5.2c-1-1-2-1.9-3.2-2.7c-0.2-0.2-0.5-0.3-0.8-0.5c0.1-0.1,0.2-0.2,0.3-0.3c0.3-0.3,0.5-0.6,0.8-1
			c0.1-0.1,0.2-0.2,0.3-0.1c0.7,0.5,1.4,0.9,2.1,1.5c1,0.9,1.9,1.8,2.9,2.7c2,1.9,4.1,3.8,6.2,5.6c1.3,1.1,2.6,2,4.1,2.7
			c1.1,0.5,2.3,0.8,3.6,0.5c1.2-0.2,2.2-0.8,3-1.7c0.7-0.7,1.2-1.6,1.6-2.6c0.6-1.8,0.5-3.6-0.5-5.3C83.9,61.3,83.7,61,83.4,60.6"/>
		<path class="st0" d="M60.3,52.4c0.1-0.6,0.3-1.3,0.3-1.9c0.2-1.7,0.2-3.5-0.1-5.2c0-0.1,0-0.1,0-0.2c-0.2-0.4-0.1-0.8,0-1.2
			c0.4-0.8,0.8-1.5,1.2-2.3c0,0,0.1-0.1,0.1-0.1c0.6,1.5,1.1,3.1,1.1,4.8c0.2-0.2,0.3-0.4,0.5-0.5c0.4-0.5,0.8-1,1.2-1.5
			c0.4-0.5,0.8-1.1,1-1.8c0.3-1-0.2-2.1-1.1-2.6c-0.8-0.4-1.6-0.2-2.3,0.3c-0.7,0.5-1,1.2-1.4,1.9c-0.7,1.5-1.2,3.1-1.6,4.7
			c-0.2,0.9-0.4,1.9-0.6,2.9c0,0.1-0.1,0.3-0.1,0.4c0-0.1,0-0.1-0.1-0.1c-0.6-1.7-1.2-3.3-1.9-5c-0.2-0.6-0.3-1.1-0.1-1.7
			c0.2-0.7,0.4-1.5,0.6-2.2c0,0,0-0.1,0.1-0.1c0.3,0.7,0.5,1.3,0.8,2c0.2-0.4,0.3-0.7,0.5-1.1c0.5-1.1,1-2.1,1.7-3.1
			c0.9-1.1,1.9-1.8,3.3-1.9c0.9-0.1,1.8,0.2,2.6,0.7c1.3,0.9,2.1,2.2,2.2,3.8c0,0.8-0.2,1.5-0.6,2.2C67,45,66.2,46.1,65.3,47
			C63.6,48.8,62,50.6,60.3,52.4C60.3,52.4,60.3,52.4,60.3,52.4"/>
		<path class="st0" d="M40.1,58c1.6-0.5,3.1-1.1,4.8-1.1c-0.1-0.1-0.1-0.1-0.2-0.2c-0.7-0.6-1.4-1.2-2.1-1.8
			c-0.6-0.5-1.4-0.9-2.2-0.8c-1.5,0-2.5,1.5-1.8,2.9c0.3,0.7,0.8,1.1,1.4,1.5c1.1,0.7,2.3,1.1,3.6,1.5c1.5,0.5,2.9,0.9,4.4,1.2
			c0.2,0.1,0.5,0.1,0.8,0.1c-0.2,0.1-0.4,0.1-0.5,0.2c-1.6,0.6-3.2,1.1-4.8,1.7c-0.4,0.2-0.9,0.2-1.3,0.1c-0.8-0.2-1.6-0.4-2.4-0.6
			c0,0,0,0-0.1-0.1c0.7-0.3,1.3-0.5,2-0.8c-0.5-0.2-1-0.4-1.4-0.6c-1.1-0.5-2.1-1-2.9-1.8c-1.3-1.2-2-3-1.4-4.7
			c0.3-0.7,0.7-1.3,1.2-1.8c0.8-0.8,1.8-1.3,3-1.3c0.8,0,1.5,0.2,2.2,0.6c1.3,0.7,2.3,1.6,3.3,2.5c1.6,1.5,3.2,3.1,4.8,4.6
			c0.1,0.1,0.3,0.3,0.5,0.4c-0.2,0-0.4-0.1-0.6-0.1c-2-0.4-4-0.5-6-0.3c-0.4,0-0.7,0.2-1.1,0.2c-0.1,0-0.3,0-0.4,0
			c-1-0.3-1.8-0.8-2.7-1.4C40.1,58.1,40.1,58.1,40.1,58"/>
		<path class="st0" d="M78.7,63.2c-0.8,0.2-1.5,0.5-2.3,0.7c-0.8,0.2-1.6,0.3-2.4,0.4c0,0,0,0.1,0.1,0.1c0.7,0.6,1.5,1.3,2.2,1.9
			c0.6,0.5,1.3,0.8,2,0.8c1.4,0,2.5-1.3,1.9-2.8c-0.3-0.8-0.9-1.3-1.7-1.7c-1.4-0.8-3-1.3-4.5-1.7c-1.2-0.3-2.3-0.6-3.5-0.9
			c-0.2,0-0.4-0.1-0.6-0.1c0.4-0.1,0.8-0.3,1.2-0.4c1.4-0.5,2.8-1,4.1-1.5c0.4-0.1,0.8-0.1,1.2-0.1c0.9,0.1,1.7,0.4,2.6,0.7
			c-0.7,0.3-1.3,0.5-2,0.8c0.2,0.1,0.4,0.2,0.6,0.3c1.2,0.5,2.4,1.1,3.4,1.9c1.1,0.8,1.7,1.9,1.9,3.2c0.1,1.3-0.3,2.4-1.2,3.3
			c-0.6,0.6-1.2,1-2,1.3c-1.1,0.4-2.2,0.3-3.3-0.3c-0.7-0.4-1.4-0.9-2-1.4c-1.4-1.1-2.6-2.4-3.9-3.6c-0.9-0.9-1.8-1.7-2.7-2.6
			c0.1,0,0.2,0,0.3,0.1c2.1,0.4,4.1,0.5,6.2,0.3c0.4,0,0.7-0.2,1.1-0.2c0.1,0,0.2,0,0.3,0c0.6,0.2,1.2,0.5,1.8,0.7
			C77.9,62.6,78.3,62.9,78.7,63.2C78.7,63.1,78.7,63.2,78.7,63.2"/>
		<path class="st0" d="M67.9,58.3c0.9-1.1,1.7-2.2,2.6-3.4c0.9-1.3,1.9-2.5,3-3.7c0.7-0.8,1.5-1.4,2.4-1.9c0.7-0.4,1.5-0.4,2.3-0.3
			c1.3,0.2,2.4,0.7,3.3,1.7c0.8,0.9,1.2,2,1.1,3.3c-0.1,0.9-0.4,1.6-0.9,2.4c-0.7-0.3-1.4-0.5-2-0.8c0.1-0.3,0.2-0.5,0.3-0.8
			c0.3-0.9,0.1-1.8-0.6-2.4c-0.7-0.7-1.6-0.8-2.5-0.5c-0.7,0.3-1.2,0.7-1.7,1.2c-0.5,0.6-1,1.1-1.6,1.7c0,0-0.1,0.1-0.1,0.2
			c3.4-0.3,6.4,0.8,9.3,2.4c-0.2,0.3-0.4,0.6-0.7,0.8c-0.3,0.3-0.7,0.5-1,0.8c-0.1,0-0.2,0-0.3,0c-1.1-0.6-2.3-0.9-3.5-1.2
			c-1.9-0.4-3.7-0.5-5.6-0.3c-1.1,0.1-2.2,0.3-3.3,0.7C68.3,58.1,68.1,58.2,67.9,58.3"/>
		<path class="st0" d="M54.1,40.7c-0.3-0.1-0.5-0.2-0.7-0.3c-0.9-0.3-1.9,0-2.5,0.7c-0.7,0.7-0.8,1.7-0.3,2.6
			c0.3,0.6,0.7,1.1,1.2,1.6c0.6,0.5,1.1,1,1.7,1.5c0,0,0.1,0,0.1,0.1c-0.3-3.4,0.7-6.4,2.3-9.3c0.2,0.2,0.4,0.3,0.6,0.4
			c0.4,0.3,0.8,0.7,1,1.2c0,0.1,0,0.2,0,0.2c-0.5,0.9-0.8,1.8-1,2.8c-0.4,1.7-0.6,3.5-0.5,5.2c0.1,1.7,0.4,3.4,1,4.9
			c0,0,0,0.1,0.1,0.1C57,52.5,57,52.4,57,52.4c-0.5-0.4-1.1-0.9-1.6-1.3c-1.3-1-2.6-2-3.9-2.9c-0.8-0.6-1.6-1.3-2.3-2.1
			c-0.7-0.7-1.3-1.5-1.5-2.5c-0.2-1.1,0-2.2,0.5-3.2c0.4-0.9,1.1-1.7,2-2.2c1.1-0.6,2.2-0.6,3.3-0.3c0.4,0.1,0.9,0.4,1.3,0.5
			c0.1,0,0.1,0.2,0.1,0.2C54.7,39.4,54.4,40,54.1,40.7"/>
		<path class="st0" d="M36,63.8c0.4-0.7,1-1.2,1.6-1.5c0.1,0,0.2-0.1,0.3,0c1,0.6,2,0.8,3.1,1.1c2.1,0.5,4.3,0.6,6.4,0.4
			c1.2-0.1,2.3-0.4,3.4-0.8c0,0,0.1,0,0.1,0c-1.1,1.5-2.3,2.9-3.4,4.4c-0.5,0.6-0.9,1.3-1.5,1.9c-0.9,1-1.8,2-3.1,2.7
			c-0.7,0.3-1.4,0.4-2.2,0.3c-1.2-0.1-2.3-0.6-3.2-1.4c-1.1-1.1-1.6-2.4-1.3-4c0.1-0.6,0.4-1.3,0.7-1.8c0-0.1,0.1-0.1,0.2-0.1
			c0.6,0.3,1.3,0.5,1.9,0.8c-0.1,0.4-0.3,0.7-0.3,1.1c-0.2,1,0.2,1.8,1,2.4c0.8,0.6,1.6,0.5,2.5,0.1c0.7-0.4,1.2-0.9,1.7-1.5
			c0.4-0.5,0.8-0.9,1.2-1.4c0,0,0-0.1,0.1-0.1C41.9,66.5,38.9,65.5,36,63.8"/>
		<path class="st0" d="M60.5,60.8c0.4,0.4,0.9,0.9,1.3,1.3c-0.5,0.5-1,1-1.5,1.6c-0.9,0.9-1.6,2-2.3,3.1c-1.1,1.8-1.8,3.7-2,5.8
			c-0.2,1.9,0.1,3.7,1.1,5.4c0.7,1.2,1.7,2.2,2.8,2.9c0.4,0.3,0.8,0.5,1.2,0.7c0.1,0.1,0.2,0.1,0.3,0.2c-0.4,0.6-0.8,1.2-1.2,1.8
			c-1.3-0.8-2.6-1.6-3.6-2.8c-1.2-1.3-2.1-2.9-2.6-4.7c-0.4-1.5-0.3-2.9-0.1-4.4c0.4-2.6,1.5-4.9,3-7.1c0.7-1.1,1.5-2,2.5-2.9
			C59.7,61.4,60.1,61.1,60.5,60.8"/>
		<path class="st0" d="M31.4,29.4c10-10,19.6-19.7,29.3-29.4c0.7,0.6,1.1,0.9,1.4,1.2c8.9,8.9,17.8,17.8,26.7,26.7
			c1,1,0.9,1.6,0,2.5c-2.1,2-4,4.2-6.2,6.5c-2.5-2.5-4.7-4.8-6.9-7.1c-4.5-4.5-9-9-13.5-13.5c-1-1-1.6-0.9-2.5,0
			C50.1,26,40.4,35.6,30.8,45.3c-7.5,7.5-15.1,15.1-22.6,22.6c-1,1-1.6,0.9-2.4-0.1c-1.6-1.7-3.2-3.4-5-5c-1.1-1-1.1-1.6-0.1-2.7
			C7,54.1,13.2,47.8,19.4,41.6c0.9-0.9,1.3-1.8,1.2-3.1c0-6.3,0-12.6,0-18.8c0-1.3,0.4-1.8,1.8-1.8c2.4,0.1,4.9,0.1,7.3,0
			c1.2,0,1.6,0.4,1.6,1.6c-0.1,2.6,0,5.2,0,7.8C31.3,27.9,31.3,28.4,31.4,29.4"/>
		<path class="st0" d="M28.8,93c2.3-2.2,4.4-4.5,6.7-6.6c0.2-0.2,1.2,0.1,1.6,0.5c4.1,4,8.2,8.1,12.3,12.2c2.3,2.3,4.7,4.6,6.9,6.9
			c1,1,1.6,1,2.6,0c9.5-9.6,19.1-19.1,28.6-28.7c7.6-7.6,15.2-15.2,22.8-22.8c0.8-0.8,1.3-1,2.2-0.1c1.7,1.8,3.4,3.5,5.2,5.2
			c0.8,0.7,0.8,1.3,0,2c-4.5,4.5-9,9-13.5,13.5c-4.4,4.4-8.8,8.9-13.3,13.3c-3.9,3.9-7.8,7.7-11.7,11.6c-5,5-10,10-15,15
			c-1.9,1.9-3.8,3.7-5.6,5.6c-0.7,0.7-1.3,0.8-2,0c-1.9-1.9-3.9-3.8-5.8-5.7c-7-7-14-14-21-21C29.5,93.9,29.2,93.5,28.8,93"/>
	</g>
	<g>
		<path class="st0" d="M491.5,18.4c-4.7,0-8.5,3.8-8.5,8.5s3.8,8.5,8.5,8.5c4.7,0,8.5-3.8,8.5-8.5S496.2,18.4,491.5,18.4
			 M491.5,34.4c-4.1,0-7.5-3.4-7.5-7.5c0-4.1,3.4-7.5,7.5-7.5c4.1,0,7.5,3.4,7.5,7.5C499,31,495.6,34.4,491.5,34.4"/>
		<path class="st0" d="M488.5,22.6c0.6-0.1,1.4-0.2,2.2-0.2c1.2,0,2,0.2,2.6,0.7c0.5,0.4,0.7,1,0.7,1.7c0,1.2-0.7,2-1.7,2.3v0
			c0.7,0.2,1.1,0.9,1.3,1.8c0.3,1.3,0.5,2.1,0.7,2.5h-1.2c-0.1-0.3-0.3-1-0.6-2.1c-0.3-1.2-0.7-1.7-1.8-1.7h-1.1v3.9h-1.2V22.6z
			 M489.7,26.6h1.2c1.2,0,2-0.7,2-1.7c0-1.2-0.8-1.7-2.1-1.7c-0.6,0-1,0.1-1.1,0.1V26.6z"/>
		<polygon class="st0" points="198.5,20.1 198.5,91.4 184.9,91.4 184.9,63.1 149.7,63.1 149.7,91.4 136,91.4 136,20.1 149.7,20.1 
			149.7,51 184.9,51 184.9,20.1 		"/>
		<polygon class="st0" points="227.6,32.2 227.6,50 262.1,50 262.1,62.4 227.6,62.4 227.6,79.1 266.5,79.1 266.5,91.4 214,91.4 
			214,20.1 266.5,20.1 266.5,32.2 		"/>
		<path class="st0" d="M332.7,39.9c0,1.4-0.3,3-0.9,4.6c-0.6,1.6-1.4,3.1-2.4,4.5c-1,1.4-2.2,2.5-3.7,3.5c-1.4,0.9-3,1.5-4.7,1.5
			c1.8,0.1,3.5,0.6,5.2,1.5c1.7,0.9,3.3,2.1,4.6,3.5c1.4,1.5,2.5,3.2,3.4,5.1c0.9,1.9,1.3,4,1.3,6.2c0,3.9-0.6,7.2-1.8,9.9
			c-1.2,2.7-2.8,4.9-4.8,6.5c-2,1.7-4.4,2.8-7.1,3.5c-2.7,0.7-5.6,1.1-8.6,1.1h-32.9V20.1h31.4c2.9,0,5.6,0.3,8.1,0.8
			c2.5,0.6,4.7,1.6,6.6,3c1.9,1.5,3.4,3.5,4.5,6.1C332.2,32.6,332.7,35.9,332.7,39.9 M294.2,49.1h16.8c1.4,0,2.5-0.3,3.6-0.8
			c1-0.5,1.9-1.2,2.5-2.1c0.7-0.8,1.2-1.8,1.6-2.9c0.4-1.1,0.5-2.1,0.5-3.2c0-1-0.2-2.1-0.6-3c-0.4-1-0.9-1.8-1.6-2.5
			c-0.7-0.7-1.4-1.3-2.3-1.8c-0.9-0.5-1.8-0.7-2.8-0.7h-17.7V49.1z M313.4,79.3c1.2,0,2.3-0.3,3.3-0.8c1-0.6,1.9-1.3,2.7-2.2
			c0.8-0.9,1.4-2,1.9-3.1c0.5-1.1,0.7-2.3,0.7-3.5c0-2.4-0.9-4.4-2.7-6c-1.8-1.6-4.2-2.4-7.4-2.4h-17.8v18.1H313.4z"/>
		<polygon class="st0" points="361.9,32.2 361.9,50 396.4,50 396.4,62.4 361.9,62.4 361.9,79.1 400.7,79.1 400.7,91.4 348.2,91.4 
			348.2,20.1 400.7,20.1 400.7,32.2 		"/>
		<polygon class="st0" points="477.2,20.1 477.2,91.4 463.6,91.4 463.6,63.1 428.4,63.1 428.4,91.4 414.8,91.4 414.8,20.1 
			428.4,20.1 428.4,51 463.6,51 463.6,20.1 		"/>
		<g>
			<path class="st0" d="M137.9,104.4v4.4h7.4v1.4h-7.4v6.1h-1.6v-13.4h9.8v1.4H137.9z"/>
			<path class="st0" d="M173.6,102.9h1.5v13.4h-1.5V102.9z"/>
			<path class="st0" d="M203.7,102.9h1.5l8.4,10.9v-10.9h1.5v13.4h-1.5l-8.4-10.9v10.9h-1.5V102.9z"/>
			<path class="st0" d="M253.6,113.2H246l-1.4,3h-1.7l6-13.4h1.7l6,13.4H255L253.6,113.2z M253,111.8l-3.2-7l-3.2,7H253z"/>
			<path class="st0" d="M284.3,102.9h1.5l8.4,10.9v-10.9h1.5v13.4h-1.5l-8.4-10.9v10.9h-1.5V102.9z"/>
			<path class="st0" d="M323.9,109.6c0-3.8,3.2-6.9,7-6.9c1.9,0,3.6,0.8,4.9,2l-1.1,1.1c-1-1-2.4-1.7-3.8-1.7
				c-2.9,0-5.4,2.5-5.4,5.5c0,3,2.5,5.5,5.4,5.5c1.5,0,2.9-0.7,3.8-1.7l1.1,1.1c-1.3,1.2-3,2-4.9,2
				C327.1,116.5,323.9,113.3,323.9,109.6z"/>
			<path class="st0" d="M363.1,102.9h1.5v13.4h-1.5V102.9z"/>
			<path class="st0" d="M402.7,113.2h-7.6l-1.4,3H392l6-13.4h1.7l6,13.4H404L402.7,113.2z M402,111.8l-3.2-7l-3.2,7H402z"/>
			<path class="st0" d="M441.8,114.8v1.4h-9v-13.4h1.5v11.9H441.8z"/>
			<path class="st0" d="M468.6,114.4l1-1.2c1.1,1.1,2.6,1.9,4.5,1.9c2.1,0,3.2-1.1,3.2-2.3c0-1.4-1.3-2-3.7-2.5
				c-2.7-0.6-4.5-1.5-4.5-3.8c0-2.1,1.9-3.8,4.6-3.8c2,0,3.5,0.8,4.8,1.9l-1,1.2c-1.1-1.1-2.5-1.7-3.9-1.7c-1.7,0-2.9,1.1-2.9,2.3
				c0,1.4,1.3,1.9,3.7,2.4c2.6,0.6,4.5,1.5,4.5,3.9c0,2.1-1.6,3.8-4.8,3.8C471.7,116.5,470,115.7,468.6,114.4z"/>
		</g>
	</g>
</g>
<g>
</g>
<g>
</g>
<g>
</g>
<g>
</g>
<g>
</g>
<g>
</g>
<g>
</g>
<g>
</g>
<g>
</g>
<g>
</g>
<g>
</g>
<g>
</g>
<g>
</g>
<g>
</g>
<g>
</g>
</svg>
