<?xml version="1.0" encoding="UTF-8"?>
<svg id="Capa_2" data-name="Capa 2" xmlns="http://www.w3.org/2000/svg" viewBox="0 0 500 377">
  <path d="M0,218.7c12.58-12.58,24.76-24.89,37.47-36.68,1.19-1.06,6.75,.79,8.87,2.78,23.04,22.51,45.68,45.28,68.46,68.06,12.84,12.84,25.95,25.56,38.53,38.66,5.43,5.69,9.27,5.56,14.7,0,53.23-53.49,106.59-106.86,159.95-160.08,42.5-42.5,85.01-84.88,127.38-127.51,4.5-4.5,7.55-5.69,12.45-.4,9.27,10.06,19.07,19.6,29,29,4.24,4.1,4.24,7.15,.13,11.25-25.29,25.03-50.45,50.18-75.61,75.34-24.76,24.76-49.26,49.65-74.02,74.41-21.72,21.72-43.7,43.17-65.41,64.88-28.07,27.94-56.01,55.88-83.95,83.82-10.46,10.46-20.92,20.79-31.25,31.51-3.97,4.1-7.28,4.37-11.39,.26-10.73-10.73-21.58-21.05-32.31-31.65-39.06-39.06-78.12-78.12-117.05-117.18-1.99-1.85-3.58-3.84-5.96-6.49" style="fill: #f90;"/>
</svg>