<?xml version="1.0" encoding="UTF-8"?>
<svg id="Capa_1" data-name="Capa 1" xmlns="http://www.w3.org/2000/svg" viewBox="0 0 500 384">
  <path d="M175.09,164.8C230.71,108.78,284.48,54.75,338.65,.32c3.71,3.31,5.96,5.03,7.81,7.02,49.79,49.66,99.32,99.59,149.38,149.12,5.83,5.69,5.3,8.87-.13,14.17-11.52,11.26-22.38,23.31-34.83,36.15-13.77-14.17-25.96-26.88-38.4-39.33-25.03-25.29-50.46-50.19-75.35-75.62-5.3-5.43-8.74-5.16-13.91,0-53.63,53.9-107.4,107.67-161.17,161.43-42.11,42.11-84.23,84.09-126.07,126.47-5.56,5.69-8.74,4.9-13.51-.26-8.87-9.67-18.14-18.94-27.81-27.81-5.96-5.43-6.36-8.87-.26-14.83,34.83-34.43,69.26-69.26,104.09-103.69,5.16-5.03,7.02-10.33,6.89-17.35-.26-35.09,.13-70.06-.26-105.15,0-7.42,2.38-10.06,9.8-9.93,13.64,.4,27.41,.4,41.05,0,6.75-.13,8.87,2.38,8.74,9.01-.4,14.57-.13,29-.13,43.57-.13,2.91,.13,5.83,.53,11.52" style="fill: #f90;"/>
</svg>